HIERARCHY
ROOT Hips
{
	OFFSET	0.00	0.00	0.00
	CHANNELS 6 Xposition Yposition Zposition Zrotation Xrotation Yrotation
	JOINT LeftUpLeg
	{
		OFFSET	 0.126116	-0.014019	-0.065224
		CHANNELS 3 Zrotation Xrotation Yrotation
		JOINT LeftLeg
		{
			OFFSET	 0.000000	 0.000000	 0.569914
			CHANNELS 3 Zrotation Xrotation Yrotation
			JOINT LeftFoot
			{
				OFFSET	 0.000000	 0.000000	 0.544423
				CHANNELS 3 Zrotation Xrotation Yrotation
				JOINT LeftToeBase
				{
					OFFSET	 0.000000	 0.000000	 0.207117
					CHANNELS 3 Zrotation Xrotation Yrotation
					End Site
					{
						OFFSET	 0.000000	 0.000000	 0.207117
					}
				}
			}
		}
	}
	JOINT RightUpLeg
	{
		OFFSET	-0.124023	-0.008373	-0.065224
		CHANNELS 3 Zrotation Xrotation Yrotation
		JOINT RightLeg
		{
			OFFSET	 0.000000	 0.000000	 0.570047
			CHANNELS 3 Zrotation Xrotation Yrotation
			JOINT RightFoot
			{
				OFFSET	 0.000000	 0.000000	 0.544354
				CHANNELS 3 Zrotation Xrotation Yrotation
				JOINT RightToeBase
				{
					OFFSET	 0.000000	 0.000000	 0.207540
					CHANNELS 3 Zrotation Xrotation Yrotation
					End Site
					{
						OFFSET	 0.000000	 0.000000	 0.207540
					}
				}
			}
		}
	}
	JOINT Spine
	{
		OFFSET	 0.000184	-0.007763	 0.117403
		CHANNELS 3 Zrotation Xrotation Yrotation
		JOINT Spine1
		{
			OFFSET	 0.000000	 0.000000	 0.137269
			CHANNELS 3 Zrotation Xrotation Yrotation
			JOINT Spine2
			{
				OFFSET	 0.000000	 0.000000	 0.156879
				CHANNELS 3 Zrotation Xrotation Yrotation
				JOINT LeftShoulder
				{
					OFFSET	 0.080501	-0.002496	 0.160144
					CHANNELS 3 Zrotation Xrotation Yrotation
					JOINT LeftArm
					{
						OFFSET	 0.000000	 0.000000	 0.164363
						CHANNELS 3 Zrotation Xrotation Yrotation
						JOINT LeftForeArm
						{
							OFFSET	 0.000000	 0.000000	 0.364576
							CHANNELS 3 Zrotation Xrotation Yrotation
							JOINT LeftHand
							{
								OFFSET	 0.000000	 0.000000	 0.360812
								CHANNELS 3 Zrotation Xrotation Yrotation
								JOINT LeftHandIndex1
								{
									OFFSET	 0.000000	 0.000000	 0.086006
									CHANNELS 3 Zrotation Xrotation Yrotation
									JOINT LeftHandIndex2
									{
										OFFSET	 0.000000	 0.000000	 0.047236
										CHANNELS 3 Zrotation Xrotation Yrotation
										JOINT LeftHandIndex3
										{
											OFFSET	-0.004284	-0.000551	 0.038166
											CHANNELS 3 Zrotation Xrotation Yrotation
											End Site
											{
												OFFSET	-0.004284	-0.000551	 0.038166
											}
										}
									}
								}
							}
						}
					}
				}
				JOINT Neck
				{
					OFFSET	 0.000000	 0.000000	 0.176489
					CHANNELS 3 Zrotation Xrotation Yrotation
					JOINT Head
					{
						OFFSET	 0.000000	-0.001747	 0.077940
						CHANNELS 3 Zrotation Xrotation Yrotation
						End Site
						{
							OFFSET	 0.000000	-0.001747	 0.077940
						}
					}
				}
				JOINT RightShoulder
				{
					OFFSET	-0.080363	 0.000306	 0.159706
					CHANNELS 3 Zrotation Xrotation Yrotation
					JOINT RightArm
					{
						OFFSET	 0.000000	 0.000000	 0.164196
						CHANNELS 3 Zrotation Xrotation Yrotation
						JOINT RightForeArm
						{
							OFFSET	 0.000000	 0.000000	 0.365611
							CHANNELS 3 Zrotation Xrotation Yrotation
							JOINT RightHand
							{
								OFFSET	 0.000000	 0.000000	 0.360648
								CHANNELS 3 Zrotation Xrotation Yrotation
								JOINT RightHandIndex1
								{
									OFFSET	 0.000000	 0.000000	 0.069977
									CHANNELS 3 Zrotation Xrotation Yrotation
									JOINT RightHandIndex2
									{
										OFFSET	 0.000000	 0.000000	 0.052305
										CHANNELS 3 Zrotation Xrotation Yrotation
										JOINT RightHandIndex3
										{
											OFFSET	 0.009002	-0.000782	 0.042196
											CHANNELS 3 Zrotation Xrotation Yrotation
											End Site
											{
												OFFSET	 0.009002	-0.000782	 0.042196
											}
										}
									}
								}
							}
						}
					}
				}
			}
		}
	}
}
MOTION
Frames:    12
Frame Time: 0.03333334
 0.000295	 0.019727	 1.271008	-0.002882	 0.003877	 0.174183	-11.057350	-1.883369	 179.501200	 1.462940	-12.757470	-0.746311	-4.492014	 71.918980	-1.898629	-2.385833	 28.452760	 0.000004	 10.899540	-1.985891	-179.737400	-1.454833	-12.363140	 0.709217	 4.313133	 71.540700	 1.890073	 2.384658	 28.388730	 0.000004	-4.271717	 2.651880	 0.291209	-2.156124	 3.910817	-0.792060	 6.526480	-4.813625	 1.425650	-91.776270	 78.527470	-179.999900	 69.796880	 44.617150	-53.486760	-7.746120	 4.345434	-10.928680	-30.141040	-9.982329	-4.416743	-2.635965	 4.993658	 6.788941	-5.165319	 0.784187	 3.516649	-5.225038	 0.466231	 0.424329	-0.000002	-3.783157	-0.089647	 6.340906	 4.484540	-0.248544	 89.782100	 78.203920	 180.000000	-64.762250	 42.142560	 56.295220	 7.316241	 4.793832	 11.144790	 30.222050	-10.885030	 8.978923	 6.112037	 4.509576	-0.364401	 4.968462	 1.518543	-9.347576	 5.168945	 0.703820	 2.021906
 0.000295	 0.019736	 1.270928	-0.002536	 0.004505	 0.174527	-11.158370	-1.932402	 179.512400	 1.461561	-12.860460	-0.752542	-4.511577	 71.974210	-1.877816	-2.385833	 28.452760	 0.000004	 11.000350	-2.036659	-179.748900	-1.453493	-12.468600	 0.715460	 4.333983	 71.597060	 1.868518	 2.384658	 28.388730	 0.000004	-4.230507	 2.582743	 0.279682	-2.139082	 4.150212	-0.768093	 6.473362	-5.125259	 1.434407	-91.776160	 78.527470	 180.000000	 69.862900	 44.683820	-53.399770	-7.733210	 4.359098	-10.963630	-30.150220	-10.099080	-4.418332	-2.635965	 4.993658	 6.788941	-5.165319	 0.784187	 3.516649	-5.225038	 0.466231	 0.424329	-0.000002	-3.783157	-0.089647	 6.276596	 4.346291	-0.238427	 89.782110	 78.203850	 180.000000	-64.852000	 41.706000	 56.735320	 6.707262	 4.622330	 11.074690	 30.298520	-11.444280	 8.733849	 6.112037	 4.509576	-0.364401	 4.968462	 1.518543	-9.347576	 5.168945	 0.703820	 2.021906
 0.000292	 0.019752	 1.270840	-0.001926	 0.005503	 0.172855	-11.316220	-2.006237	 179.531500	 1.459469	-13.014720	-0.761887	-4.541097	 72.057100	-1.846186	-2.385833	 28.452760	 0.000004	 11.158310	-2.116382	-179.765000	-1.451342	-12.634950	 0.725325	 4.366940	 71.685810	 1.834690	 2.384658	 28.388730	 0.000004	-4.123158	 2.476011	 0.260632	-2.090694	 4.519738	-0.723401	 6.324038	-5.610842	 1.431986	-91.776180	 78.527450	 180.000000	 69.935650	 44.803570	-53.240830	-7.707828	 4.372042	-10.996720	-30.169430	-10.343640	-4.421746	-2.635965	 4.993658	 6.788941	-5.165319	 0.784187	 3.516649	-5.225038	 0.466231	 0.424329	-0.000002	-3.783157	-0.089647	 6.112192	 4.140310	-0.221158	 89.782090	 78.203870	-180.000000	-64.809940	 40.843820	 58.055090	 5.514421	 4.046419	 10.318630	 30.510300	-12.522360	 8.278713	 6.112037	 4.509576	-0.364401	 4.968462	 1.518543	-9.347576	 5.168945	 0.703820	 2.021906
 0.000284	 0.019769	 1.270799	-0.001338	 0.006414	 0.168816	-11.463200	-2.072016	 179.551300	 1.457592	-13.151250	-0.770167	-4.567484	 72.130670	-1.817667	-2.385833	 28.452760	 0.000004	 11.305920	-2.191458	-179.777800	-1.449284	-12.792550	 0.734675	 4.398167	 71.769850	 1.802858	 2.384658	 28.388730	 0.000004	-3.976357	 2.378940	 0.242268	-2.021557	 4.855817	-0.674747	 6.111985	-6.057363	 1.410856	-91.776180	 78.527450	 180.000000	 69.955580	 44.924540	-53.047070	-7.679114	 4.375164	-11.004750	-30.193010	-10.643410	-4.426053	-2.635965	 4.993658	 6.788941	-5.165319	 0.784187	 3.516649	-5.225038	 0.466231	 0.424329	-0.000002	-3.783157	-0.089647	 5.889553	 3.960700	-0.203838	 89.782140	 78.203900	 180.000000	-64.125810	 39.723710	 59.445900	 3.844194	 3.538672	 9.879260	 30.262890	-13.763250	 7.588807	 6.112037	 4.509576	-0.364401	 4.968462	 1.518543	-9.347576	 5.168945	 0.703820	 2.021906
 0.000269	 0.019798	 1.270775	-0.000681	 0.007340	 0.161476	-11.613480	-2.141837	 179.574700	 1.455603	-13.294720	-0.778877	-4.579183	 72.208420	-1.791677	-2.385833	 28.452760	 0.000004	 11.480500	-2.275280	-179.790400	-1.446936	-12.970040	 0.745225	 4.448168	 71.864210	 1.763201	 2.384658	 28.388730	 0.000004	-3.762542	 2.275667	 0.221984	-1.918146	 5.213649	-0.614198	 5.796185	-6.537980	 1.364869	-91.776250	 78.527470	-180.000000	 69.903980	 45.057950	-52.736640	-7.748054	 4.373691	-11.000850	-30.118740	-11.047220	-4.414988	-2.635965	 4.993658	 6.788941	-5.165319	 0.784187	 3.516649	-5.225038	 0.466231	 0.424329	-0.000002	-3.783157	-0.089647	 5.566975	 3.777500	-0.183739	 89.782140	 78.203890	 180.000000	-61.580400	 37.707770	 59.411990	 0.783763	 3.906232	 12.988440	 28.959000	-15.485050	 6.132325	 6.112037	 4.509576	-0.364401	 4.968462	 1.518543	-9.347576	 5.168945	 0.703820	 2.021906
 0.000250	 0.019838	 1.270793	-0.000140	 0.008030	 0.152463	-11.755180	-2.200018	 179.598000	 1.453930	-13.413750	-0.786112	-4.604301	 72.272930	-1.765356	-2.385833	 28.452760	 0.000004	 11.621580	-2.349442	-179.798300	-1.444816	-13.128010	 0.754624	 4.477872	 71.948270	 1.732108	 2.384658	 28.388730	 0.000004	-3.534317	 2.190552	 0.205099	-1.805634	 5.508889	-0.557008	 5.453927	-6.938565	 1.304939	-91.776180	 78.527470	 180.000000	 69.762180	 45.154490	-52.356990	-7.749898	 4.364466	-10.977320	-30.115760	-11.480460	-4.415603	-2.635965	 4.993658	 6.788941	-5.165319	 0.784187	 3.516649	-5.225038	 0.466231	 0.424329	-0.000002	-3.783157	-0.089647	 5.223946	 3.632638	-0.165786	 89.781990	 78.203900	-179.999900	-58.135220	 35.722940	 61.521200	-2.143077	 3.237859	 13.211590	 27.308900	-16.901870	 4.609180	 6.112037	 4.509576	-0.364401	 4.968462	 1.518543	-9.347576	 5.168945	 0.703820	 2.021906
 0.000224	 0.019887	 1.270677	 0.000411	 0.008644	 0.139809	-11.911940	-2.262359	 179.626100	 1.452132	-13.540360	-0.793813	-4.631705	 72.341760	-1.736632	-2.385833	 28.452760	 0.000004	 11.777970	-2.432922	-179.804900	-1.442375	-13.307160	 0.765300	 4.511431	 72.043460	 1.697021	 2.384658	 28.388730	 0.000004	-3.237130	 2.102529	 0.187488	-1.656851	 5.814919	-0.489579	 5.002988	-7.357820	 1.216225	-91.776230	 78.527430	-180.000000	 69.476660	 45.225250	-51.770930	-7.752653	 4.349887	-10.940060	-30.115290	-12.043310	-4.417488	-2.635965	 4.993658	 6.788941	-5.165319	 0.784187	 3.516649	-5.225038	 0.466231	 0.424329	-0.000002	-3.783157	-0.089647	 4.778521	 3.488414	-0.145611	 89.782130	 78.203870	 180.000000	-52.739820	 32.685010	 64.628170	-5.577004	 2.434504	 13.420840	 24.670270	-18.168310	 2.657210	 6.112037	 4.509576	-0.364401	 4.968462	 1.518543	-9.347576	 5.168945	 0.703820	 2.021906
 0.000193	 0.019932	 1.270219	 0.000856	 0.009032	 0.124397	-12.067420	-2.322483	 179.656400	 1.450400	-13.661570	-0.801194	-4.658638	 72.407870	-1.708411	-2.385833	 28.452760	 0.000004	 11.933550	-2.517509	-179.809100	-1.439838	-13.490230	 0.776227	 4.545601	 72.140620	 1.661346	 2.384658	 28.388730	 0.000004	-2.898100	 2.022794	 0.171673	-1.484755	 6.093060	-0.419443	 4.483325	-7.742258	 1.104916	-91.776070	 78.527450	 179.999900	 69.054620	 45.248260	-51.018570	-7.757941	 4.322954	-10.871170	-30.118480	-12.687960	-4.420713	-2.635965	 4.993658	 6.788941	-5.165319	 0.784187	 3.516649	-5.225038	 0.466231	 0.424329	-0.000002	-3.783157	-0.089647	 4.271676	 3.362695	-0.125460	 89.782120	 78.203870	 180.000000	-45.576310	 29.105560	 68.156940	-9.250638	 1.584052	 13.802250	 21.492010	-19.076470	 0.593824	 6.112037	 4.509576	-0.364401	 4.968462	 1.518543	-9.347576	 5.168945	 0.703820	 2.021906
 0.000153	 0.019900	 1.269416	 0.001185	 0.009149	 0.106321	-12.223270	-2.478492	 179.697300	 1.445745	-13.980660	-0.820663	-4.731725	 72.575370	-1.631777	-2.385833	 28.452760	 0.000004	 12.089840	-2.714491	-179.820300	-1.433926	-13.907710	 0.801205	 4.631730	 72.357770	 1.571174	 2.384658	 28.388730	 0.000004	-2.518429	 1.952115	 0.157760	-1.289710	 6.341036	-0.346999	 3.896413	-8.087762	 0.970985	-91.776150	 78.527450	 180.000000	 68.470890	 45.202840	-50.047850	-7.763472	 4.293733	-10.796560	-30.126340	-13.413480	-4.425714	-2.635965	 4.993658	 6.788941	-5.165319	 0.784187	 3.516649	-5.225038	 0.466231	 0.424329	-0.000002	-3.783157	-0.089647	 3.705259	 3.254862	-0.105322	 89.782160	 78.203870	 179.999900	-37.431460	 25.136840	 72.969210	-13.063020	 0.604877	 13.051100	 17.734900	-19.539520	-1.442446	 6.112037	 4.509576	-0.364401	 4.968462	 1.518543	-9.347576	 5.168945	 0.703820	 2.021906
 0.000087	 0.019860	 1.268130	 0.001373	 0.010570	 0.090101	-12.387070	-2.970610	 179.763400	 1.430176	-14.994540	-0.882895	-4.976974	 73.098890	-1.374877	-2.385833	 28.452760	 0.000004	 12.253710	-3.239327	-179.859600	-1.417485	-15.001220	 0.867067	 4.880292	 72.921310	 1.310848	 2.384658	 28.388730	 0.000004	-2.083996	 1.888071	 0.140150	-1.064172	 6.562314	-0.271131	 3.220270	-8.398365	 0.809502	-91.776310	 78.527450	-179.999900	 67.718470	 45.081020	-48.862720	-7.773457	 4.240953	-10.661770	-30.139980	-14.244990	-4.433049	-2.635965	 4.993658	 6.788941	-5.165319	 0.784187	 3.516649	-5.225038	 0.466231	 0.424329	-0.000002	-3.783157	-0.089647	 3.058578	 3.162009	-0.084452	 89.782120	 78.203920	 180.000000	-27.563600	 19.671100	 78.033470	-17.163490	-0.325883	 12.312740	 12.553280	-19.355600	-3.372248	 6.112037	 4.509576	-0.364401	 4.968462	 1.518543	-9.347576	 5.168945	 0.703820	 2.021906
 0.000021	 0.019897	 1.266584	 0.001897	 0.013094	 0.077477	-12.524680	-3.526847	 179.828500	 1.411104	-16.140690	-0.953959	-5.275784	 73.689480	-1.062741	-2.385833	 28.452760	 0.000004	 12.390620	-3.823239	-179.904600	-1.397620	-16.213950	 0.940908	 5.179070	 73.545370	 0.998846	 2.384658	 28.388730	 0.000004	-1.694371	 1.842512	 0.124290	-0.860461	 6.715013	-0.206394	 2.610148	-8.614041	 0.658328	-91.776220	 78.527470	-180.000000	 67.036050	 44.937420	-47.823530	-7.785057	 4.178421	-10.502300	-30.153340	-14.959710	-4.440450	-2.635965	 4.993658	 6.788941	-5.165319	 0.784187	 3.516649	-5.225038	 0.466231	 0.424329	-0.000002	-3.783157	-0.089647	 2.479088	 3.099633	-0.067098	 89.782050	 78.203890	-180.000000	-17.576410	 15.422620	 81.092160	-20.467650	-1.154319	 13.499070	 8.713681	-19.002120	-4.572344	 6.112037	 4.509576	-0.364401	 4.968462	 1.518543	-9.347576	 5.168945	 0.703820	 2.021906
-0.000021	 0.019953	 1.264531	 0.001960	 0.015284	 0.061174	-12.679170	-4.208841	 179.909100	 1.385479	-17.548420	-1.042387	-5.672889	 74.414640	-0.649323	-2.385833	 28.452760	 0.000004	 12.546110	-4.530779	-179.957700	-1.371108	-17.686930	 1.031833	 5.574225	 74.303100	 0.587613	 2.384658	 28.388730	 0.000004	-1.228314	 1.757163	 0.139927	-0.611414	 6.935100	-0.191991	 1.882464	-8.843354	 0.501477	-91.776130	 78.527490	 179.999900	 66.360330	 44.797250	-46.810510	-7.797373	 4.112333	-10.333720	-30.161430	-15.667650	-4.447607	-2.635965	 4.993658	 6.788941	-5.165319	 0.784187	 3.516649	-5.225038	 0.466231	 0.424329	-0.000002	-3.783157	-0.089647	 1.787385	 3.046047	-0.047540	 89.782150	 78.203890	 180.000000	-6.822095	 12.649990	 86.118140	-23.818420	-1.736728	 11.952080	 6.105731	-18.732560	-5.445721	 6.112037	 4.509576	-0.364401	 4.968462	 1.518543	-9.347576	 5.168945	 0.703820	 2.021906
